<?xml version="1.0" encoding="UTF-8"?>
<svg id="Prancheta_1" data-name="Prancheta 1" xmlns="http://www.w3.org/2000/svg" viewBox="0 0 2615.74 562.4" width="180px">
  <defs>
    <style>
      .cls-1, .cls-2 {
        fill: #fff;
      }

      .cls-3 {
        letter-spacing: 0em;
      }

      .cls-4 {
        fill: #0077b5;
      }

      .cls-5 {
        letter-spacing: 0em;
      }

      .cls-6 {
        letter-spacing: 0em;
      }

      .cls-7 {
        letter-spacing: 0em;
      }

      .cls-8 {
        letter-spacing: 0em;
      }

      .cls-2 {
        font-family: Calibri-Bold, Calibri;
        font-size: 250px;
        font-weight: 700;
      }

      .cls-9 {
        letter-spacing: 0em;
      }
    </style>
  </defs>
  <g id="Versao_3-3" data-name="Versao 3">
    <rect class="cls-4" x="0" y="0" width="2615.74" height="562.4"/>
    <g id="LinkEdin">
      <rect class="cls-1" x="168.76" y="239.1" width="52.04" height="167.3"/>
      <path class="cls-1" d="m224.79,188.35c-1.09,14.99-13.42,27.07-28.43,27.86-17.41.91-31.74-12.97-31.74-30.09s13.46-30.12,30.12-30.12,31.33,14.76,30.05,32.35Z"/>
      <path class="cls-1" d="m415.49,314.69v91.71h-51.96v-81.38c0-19.41-.39-44.37-26.99-44.37s-31.23,21.13-31.23,42.96v82.79h-51.96v-167.3h49.85v22.85h.7c6.97-13.15,23.95-27,49.22-27,52.59,0,62.37,34.67,62.37,79.74Z"/>
    </g>
    <text class="cls-2" transform="translate(569.1 363.35)"><tspan class="cls-9" x="0" y="0">D</tspan><tspan class="cls-6" x="160.09" y="0">e</tspan><tspan class="cls-9" x="287.23" y="0">v</tspan><tspan class="cls-7" x="408.01" y="0">P</tspan><tspan class="cls-9" x="539.54" y="0">ed</tspan><tspan class="cls-3" x="804.55" y="0">r</tspan><tspan class="cls-9" x="892.87" y="0">oAugu</tspan><tspan class="cls-5" x="1578.1" y="0">s</tspan><tspan class="cls-8" x="1677.52" y="0">t</tspan><tspan class="cls-9" x="1764.25" y="0">o</tspan></text>
  </g>
</svg>