<?xml version="1.0" encoding="UTF-8"?>
<svg id="Prancheta_3" data-name="Prancheta 3" xmlns="http://www.w3.org/2000/svg" viewBox="0 0 2918.04 562" width="200px">
  <defs>
    <style>
      .cls-1, .cls-2 {
        fill: #fff;
      }

      .cls-2 {
        font-family: Calibri-Bold, Calibri;
        font-size: 250px;
        font-weight: 600;
        letter-spacing: 0em;
      }

      .cls-3 {
        fill: #25d366;
      }
    </style>
  </defs>
  <g id="Versao_3" data-name="Versao 3">
    <rect id="Background" class="cls-3" width="2918.04" height="562.4"/>
    <path class="cls-1" d="m357.71,309.4c.71,1.49.71,7.74-1.87,14.92-2.58,7.27-14.92,13.83-20.86,14.69-9.84,1.48-17.5.7-37.11-7.73-28.75-12.43-48.28-40.24-52.27-45.86-.31-.47-.54-.71-.62-.86-1.56-2.03-12.66-16.8-12.66-32.03,0-14.38,7.03-21.8,10.32-25.24.23-.23.39-.39.54-.62,2.81-3.13,6.17-3.91,8.28-3.91s4.14,0,5.94.08h.63c1.79,0,4.06,0,6.32,5.31.94,2.27,2.35,5.7,3.83,9.22,2.58,6.25,5.24,12.73,5.71,13.75.78,1.56,1.32,3.36.23,5.39-2.66,5.31-5.39,8.13-7.27,10.16-2.42,2.5-3.51,3.67-1.79,6.72,11.95,20.54,23.9,27.65,42.11,36.79,3.12,1.56,4.92,1.33,6.72-.78,1.79-2.03,7.73-9.06,9.76-12.11,2.03-3.12,4.14-2.58,6.95-1.56,2.82,1.01,18.05,8.51,21.18,10.08.62.31,1.17.54,1.64.78,2.18,1.09,3.67,1.8,4.29,2.81Z"/>
    <path class="cls-1" d="m382.87,192.53c-23.44-23.44-54.53-36.33-87.66-36.33-68.28,0-123.82,55.54-123.9,123.83,0,21.87,5.7,43.2,16.56,61.95l-17.58,64.22,65.7-17.27c18.05,9.85,38.44,15.08,59.22,15.08,68.28,0,125.08-55.55,125.08-123.83,0-33.12-14.06-64.22-37.42-87.65Zm-87.58,190.62h-.08c-18.51,0-36.64-5-52.42-14.37l-3.75-2.27-38.98,10.23,10.39-37.96-2.42-3.91c-10.32-16.33-15.79-35.31-15.79-54.77.08-56.79,46.25-102.96,103.05-102.96,27.5,0,53.28,10.7,72.81,30.23,19.46,19.45,31.33,45.31,31.33,72.81,0,56.8-47.42,102.97-104.14,102.97Z"/>
    <text class="cls-2" transform="translate(579.97 363.35)"><tspan x="0" y="0">+55 (11) 97999-5007</tspan></text>
  </g>
</svg>