<?xml version="1.0" encoding="UTF-8"?>
<svg id="Prancheta_2" data-name="Prancheta 2" xmlns="http://www.w3.org/2000/svg" viewBox="0 0 2615.74 562" width="180px">
  <defs>
    <style>
      .cls-1, .cls-2 {
        fill: #fff;
      }

      .cls-3 {
        letter-spacing: 0em;
      }

      .cls-4 {
        letter-spacing: 0em;
      }

      .cls-5 {
        letter-spacing: 0em;
      }

      .cls-6 {
        letter-spacing: 0em;
      }

      .cls-7 {
        letter-spacing: 0em;
      }

      .cls-2 {
        font-family: Calibri-Bold, Calibri;
        font-size: 250px;
        font-weight: 700;
      }

      .cls-8 {
        letter-spacing: 0em;
      }
    </style>
  </defs>
  <g id="Versao_3-2" data-name="Versao 3">
    <rect x="0" width="2615.74" height="562.4"/>
    <path class="cls-1" d="m256.73,341.85c1.02.54,1.49,1.4,1.18,2.03-.32.7-1.33.86-2.19.31-1.02-.47-1.49-1.33-1.17-2.03.31-.47,1.17-.7,2.18-.31Z"/>
    <path class="cls-1" d="m215.39,336.29c.86,1.01,1.01,2.18.31,2.73-.7.7-1.87.31-2.73-.47-.86-1.01-1.02-2.19-.32-2.73.71-.71,1.88-.32,2.74.47Z"/>
    <path class="cls-1" d="m220.78,343.39c.86,1.18.86,2.58,0,3.21-.7.47-2.03,0-2.89-1.17-.86-1.18-.86-2.5,0-3.05.86-.7,2.19-.16,2.89,1.01Z"/>
    <path class="cls-1" d="m227.18,350.5c1.02,1.02,1.41,2.58.71,3.21-.71.86-2.19.7-3.36-.47-1.17-1.02-1.49-2.5-.7-3.2.7-.86,2.18-.71,3.35.46Z"/>
    <path class="cls-1" d="m235.31,355.27c1.56.47,2.58,1.64,2.19,2.66-.32,1.01-1.88,1.48-3.21,1.01-1.48-.31-2.5-1.48-2.18-2.5.31-1.01,1.87-1.48,3.2-1.17Z"/>
    <path class="cls-1" d="m248.2,358.79c0,1.01-1.17,1.87-2.73,1.87-1.72.16-2.89-.7-2.89-1.87,0-1.02,1.17-1.88,2.73-1.88,1.48-.16,2.89.7,2.89,1.88Z"/>
    <path class="cls-1" d="m257.97,357.14c.23,1.02-.79,2.04-2.35,2.35-1.48.31-2.89-.31-3.04-1.33-.16-1.17.85-2.19,2.34-2.5,1.48-.16,2.89.47,3.05,1.48Z"/>
    <path class="cls-1" d="m418.18,282.35c.08,57.34-34.92,106.49-86.49,123.67-6.56,1.17-8.98-2.89-8.98-6.25,0-1.4,0-4.68.08-9.06.07-8.91.07-22.5.07-34.14s-4.06-19.92-8.82-23.98c28.9-3.21,59.37-7.19,59.37-57.11,0-14.22-5.08-21.33-13.36-30.47,1.33-3.36,5.78-17.19-1.33-35.16-10.86-3.36-35.7,13.99-35.7,13.99-10.31-2.9-21.48-4.38-32.5-4.38s-22.19,1.48-32.5,4.38c0,0-24.84-17.35-35.7-13.99-7.11,17.89-2.74,31.72-1.33,35.16-8.28,9.14-12.19,16.25-12.19,30.47,0,49.68,29.14,53.9,58.05,57.11-3.75,3.35-7.11,9.14-8.28,17.42-7.42,3.36-26.41,9.14-37.74-10.86-7.11-12.35-19.92-13.36-19.92-13.36-12.65-.16-.86,7.97-.86,7.97,8.44,3.9,14.38,18.9,14.38,18.9,7.58,23.21,43.83,15.39,43.83,15.39,0,7.04.07,16.96.07,23.91,0,3.75.08,6.72.08,7.81,0,3.36-2.34,7.42-8.98,6.25-51.57-17.26-87.66-66.33-87.66-123.67,0-71.72,54.84-126.17,126.56-126.17s129.85,54.45,129.85,126.17Z"/>
    <text class="cls-2" transform="translate(570.77 363.35)"><tspan class="cls-8" x="0" y="0">D</tspan><tspan class="cls-5" x="160.09" y="0">e</tspan><tspan class="cls-8" x="287.23" y="0">v</tspan><tspan class="cls-6" x="408.01" y="0">P</tspan><tspan class="cls-8" x="539.54" y="0">ed</tspan><tspan class="cls-3" x="804.55" y="0">r</tspan><tspan class="cls-8" x="892.87" y="0">oAugu</tspan><tspan class="cls-4" x="1578.1" y="0">s</tspan><tspan class="cls-7" x="1677.52" y="0">t</tspan><tspan class="cls-8" x="1764.25" y="0">o</tspan></text>
  </g>
</svg>